<svg width="24" height="24" viewBox="0 0 24 24" fill="none" xmlns="http://www.w3.org/2000/svg">
  <path d="M10 2H15V5.5L17.9 10.7C19.6 13.8 17.4 17.5 13.9 17.5H8.5C5 17.5 2.8 13.8 4.5 10.7L7.5 5.5V3.5C7.5 2.7 8.2 2 9 2H10Z" fill="#8B78C8"/>
  <path d="M8 4.4H15.4" stroke="#2F2F2F" stroke-width="1.4" stroke-linecap="round"/>
  <path d="M7.4 11.2H17.1L17.5 12.5C18 14.4 16.6 16.3 14.6 16.3H8.2C6.2 16.3 4.8 14.4 5.3 12.5L5.4 12.2C5.6 11.6 6.2 11.2 7.4 11.2Z" fill="#C9BDF1"/>
  <path d="M8 17.2C8 15.8 9.1 14.7 10.5 14.7H13.9C15.3 14.7 16.4 15.8 16.4 17.2V20.8C16.4 21.5 15.9 22 15.2 22H9.2C8.5 22 8 21.5 8 20.8V17.2Z" fill="#D8D8D8"/>
  <path d="M9.8 17.3H14.6" stroke="#FFFFFF" stroke-width="1.3" stroke-linecap="round"/>
  <path d="M10.9 14.6L8.4 9.9M13.6 14.6L16.1 9.9" stroke="#2F2F2F" stroke-width="1.1" stroke-linecap="round"/>
  <path d="M7.5 4.8C8.4 4.8 9.2 4.1 9.2 3.2" stroke="#FFFFFF" stroke-width="1.2" stroke-linecap="round"/>
</svg>
